<svg xmlns="http://www.w3.org/2000/svg" width="320.935" height="144.795"><path fill="#EEE" d="M222.834 69.861c0 3.558-2.866 6.425-6.562 6.425h-2.813v5.894h-4.285V63.431l7.099.002c3.695-.002 6.561 2.865 6.561 6.428zm-4.284 0c0-1.367-.967-2.412-2.277-2.414h-2.813v4.823h2.813c1.31.001 2.277-1.043 2.277-2.409zm7.363 2.945c0-5.518 4.365-9.751 9.751-9.751 5.382 0 9.747 4.232 9.747 9.751 0 5.518-4.365 9.75-9.747 9.75-5.386 0-9.751-4.232-9.751-9.75zm15.213 0c0-3.348-2.41-5.571-5.465-5.573-3.053.002-5.465 2.226-5.465 5.573 0 3.347 2.412 5.571 5.465 5.57 3.055.001 5.463-2.223 5.465-5.57zm19.551 5.251l-.003 4.123-10.98.001V63.433h4.283v14.624h6.7zm8.028-14.624v18.748h-4.284v-18.75l4.284.002zm4.284 9.372c0-5.518 4.101-9.75 9.751-9.75 3.404 0 6.4 1.688 8.036 4.34l-3.693 2.144c-.835-1.448-2.441-2.304-4.343-2.306-3.322 0-5.464 2.226-5.464 5.573-.002 3.347 2.144 5.571 5.464 5.571 1.903 0 3.536-.856 4.343-2.304l3.693 2.142c-1.606 2.655-4.605 4.341-8.036 4.341-5.65 0-9.751-4.233-9.751-9.751zm33.451 5.251v4.125h-11.783V63.433h11.653v4.125l-7.371-.001v3.107l6.701-.001v4.071l-6.701-.001v3.325l7.501-.002zM14.494 72.518c0-5.519 4.098-9.749 9.747-9.75 3.403.001 6.405 1.688 8.034 4.339l-3.691 2.142c-.833-1.444-2.439-2.301-4.34-2.302-3.322 0-5.466 2.223-5.466 5.571 0 3.349 2.144 5.572 5.466 5.572 1.9.002 3.536-.857 4.34-2.304l3.695 2.142c-1.609 2.653-4.607 4.34-8.038 4.338-5.649.001-9.747-4.23-9.747-9.748zm26.112 3.215h-2.038v6.159h-4.284V63.141h7.499a6.415 6.415 0 0 1 6.429 6.429c0 2.304-1.393 4.395-3.456 5.439l3.99 6.882-4.605.001-3.535-6.159zm-2.038-3.754h3.215c1.179.001 2.144-1.041 2.144-2.409 0-1.363-.965-2.409-2.144-2.408h-3.215v4.817zm20.623 2.709v7.206l-4.288-.001.004-7.204-6.297-11.547 4.874-.001 3.564 7.236 3.563-7.236h4.874l-6.294 11.547zm21.56-5.118c0 3.563-2.869 6.428-6.564 6.428h-2.814l.003 5.894-4.284.001V63.142l7.096-.001c3.694 0 6.563 2.867 6.563 6.429zm-4.285.001c0-1.363-.966-2.409-2.279-2.408h-2.812v4.816h2.812c1.311 0 2.275-1.041 2.279-2.408zm18.744-2.303h-4.821v14.625h-4.286V67.268l-4.82-.001v-4.125l13.928-.001v4.127zm-.004 5.25c0-5.519 4.369-9.75 9.752-9.75 5.381 0 9.75 4.231 9.75 9.751 0 5.518-4.369 9.747-9.75 9.747-5.383.001-9.752-4.23-9.752-9.748zm15.217.001c0-3.35-2.411-5.572-5.465-5.571-3.053 0-5.463 2.222-5.463 5.57 0 3.35 2.41 5.574 5.463 5.574 3.051-.001 5.465-2.226 5.465-5.573zm49.345-44.057l.596-1.028.592 1.028 9.441 16.348 2.475 4.286a26.686 26.686 0 0 0-12.508-3.097c-4.52 0-8.775 1.123-12.509 3.097l2.475-4.286 9.438-16.348zm-38.346 21.455l.597 1.027 9.435 16.348 2.167 3.75c.58-8.954 5.552-16.707 12.789-21.125h-24.988zm20.065 44.962h3.668c-6.748-4.657-11.249-12.321-11.574-21.06l-2.128 3.685-9.435 16.346-.597 1.029h20.066zm28.909 5.106l1.804-3.125a26.678 26.678 0 0 1-11.837 2.754c-4.249 0-8.266-.992-11.838-2.754l1.804 3.125 9.438 16.348.596 1.028.592-1.028 9.441-16.348zm28.908-5.106l-.597-1.029-9.435-16.347-2.129-3.684c-.324 8.736-4.828 16.403-11.573 21.06h23.734zm0-44.962h-24.986c7.233 4.418 12.208 12.174 12.788 21.127l2.167-3.752 9.435-16.348.596-1.027zm-34.099 20.124h-9.784v-4.035h9.784c1.206 0 1.984.845 1.984 2.015 0 1.174-.814 2.02-1.984 2.02zm2.801 6.801c0 1.269-.848 2.182-2.148 2.182h-10.437V74.66h10.437c1.3 0 2.148.913 2.148 2.182zm-7.643-26.022c-12.126 0-21.988 9.865-21.988 21.986 0 12.125 9.862 21.988 21.988 21.988 12.122 0 21.985-9.863 21.985-21.988.001-12.121-9.863-21.986-21.985-21.986zm5.494 33.082h-.787v4.23h-3.847v-4.23h-1.938v4.23h-3.843v-4.227h-7.668v-4.858h2.439V65.994h-2.439v-4.87h7.668v-4.227h3.843v4.227h1.938v-4.227h3.847v4.227h.135c3.971 0 7.193 2.571 7.193 6.509 0 1.886-.75 3.385-1.985 4.459 1.693 1.073 2.8 2.83 2.8 5.14 0 4.038-3.288 6.67-7.356 6.67z"/><radialGradient id="a" cx="160.468" cy="72.398" r="124.481" gradientUnits="userSpaceOnUse"><stop offset="0" stop-color="#fff"/><stop offset="1" stop-color="#fff" stop-opacity=".3"/></radialGradient><path opacity=".3" fill="url(#a)" d="M320.935 53.11H306.7l2.41 2.411H208.157l5.559-9.633a6.98 6.98 0 0 0 3.573.993 7.014 7.014 0 0 0 7.008-7.016 7.006 7.006 0 0 0-7.008-7.008 6.998 6.998 0 0 0-6.999 6.846h-30.755L170.1 23.356l-5.938-10.281a7.003 7.003 0 0 0 3.513-6.067c0-3.873-3.143-7.008-7.016-7.008s-7.012 3.135-7.012 7.008a7.006 7.006 0 0 0 3.509 6.067l-5.936 10.281-9.438 16.348h-30.741a7.013 7.013 0 0 0-7.012-6.988 7.014 7.014 0 0 0-7.012 7.012 7.009 7.009 0 0 0 10.528 6.062l5.619 9.733H11.822l2.408-2.412H0v14.231l2.407-2.409V79.91L0 77.5v14.234l14.23-.003-2.46-2.459 101.395-.003-5.561 9.636a6.95 6.95 0 0 0-3.574-.988 7.009 7.009 0 0 0-7.012 7.009 7.015 7.015 0 0 0 7.012 7.015c3.817 0 6.917-3.053 7.003-6.853h11.873l18.877.003 9.438 16.348 5.936 10.279a7.01 7.01 0 0 0-3.509 6.065c0 3.872 3.139 7.012 7.012 7.012s7.016-3.14 7.016-7.012a7.003 7.003 0 0 0-3.513-6.065l5.936-10.279 9.438-16.352 18.878.004 11.867-.004a7.009 7.009 0 0 0 14.017-.021 7.009 7.009 0 0 0-7.008-7.012c-1.281 0-2.48.353-3.513.95l-5.619-9.735h101.005l-2.462 2.465 14.234-.003V77.5l-2.409 2.409-.003-14.977 2.412 2.409V53.11zm-6.028 11.823v20.726h-113.01l3.13 5.421 5.619 9.732.383.662h-33.577l-1.043 1.808-9.439 16.35-5.938 10.277-.372.646-.373-.646-5.938-10.277-9.436-16.35-1.043-1.808h-33.573l.439-.764 5.559-9.631 3.126-5.421H6.021l.004-5.749V64.933l-.004-5.797h113.404l-3.13-5.423-5.617-9.73-.386-.664h12.614l18.877-.001h2.087l1.043-1.807 9.436-16.348 5.938-10.28.377-.646.368.646 5.938 10.28 9.439 16.348 1.043 1.807h33.577l-.445.767-5.557 9.627-3.13 5.424h113.01v5.797z"/><path opacity=".3" fill="#FFF" d="M119.487 84.519l4.567-12.06-4.567-12.063 6.964 12.063-6.964 12.06zm81.96-24.244l-4.57 12.062 4.57 12.063-6.962-12.063 6.962-12.062z"/></svg>